# Simple low-poly ring
o ring

v 1.5 0 0
v 1.0 0.5 0
v 0.5 1.0 0
v 0 1.5 0
v -0.5 1.0 0
v -1.0 0.5 0
v -1.5 0 0
v -1.0 -0.5 0
v -0.5 -1.0 0
v 0 -1.5 0
v 0.5 -1.0 0
v 1.0 -0.5 0

v 0.75 0 0.5
v 0.5 0.25 0.5
v 0.25 0.5 0.5
v 0 0.75 0.5
v -0.25 0.5 0.5
v -0.5 0.25 0.5
v -0.75 0 0.5
v -0.5 -0.25 0.5
v -0.25 -0.5 0.5
v 0 -0.75 0.5
v 0.25 -0.5 0.5
v 0.5 -0.25 0.5

f 1 2 14 13
f 2 3 15 14
f 3 4 16 15
f 4 5 17 16
f 5 6 18 17
f 6 7 19 18
f 7 8 20 19
f 8 9 21 20
f 9 10 22 21
f 10 11 23 22
f 11 12 24 23
f 12 1 13 24
